<svg width="22" height="19" viewBox="0 0 22 19" fill="none" xmlns="http://www.w3.org/2000/svg">
<path d="M9.45457 12.1469C9.45454 12.3726 9.46866 12.598 9.49687 12.8219C9.46866 12.598 9.45454 12.3726 9.45457 12.1469C9.45631 11.8078 9.49036 11.4697 9.55627 11.1371" stroke="#057BFF" stroke-width="1.6" stroke-linecap="round" stroke-linejoin="round"/>
<path fill-rule="evenodd" clip-rule="evenodd" d="M14.8545 17.5469C17.7063 17.5503 20.0691 15.3356 20.2501 12.4896C20.431 9.64354 18.3678 7.1474 15.5385 6.78959C12.7093 6.43177 10.0895 8.33564 9.55622 11.1371C8.30629 10.5379 6.81696 10.765 5.80246 11.7096C4.78797 12.6541 4.45519 14.1235 4.96372 15.4129C5.47225 16.7024 6.71839 17.5491 8.10452 17.5469H14.8545Z" stroke="#057BFF" stroke-width="1.6" stroke-linecap="round" stroke-linejoin="round"/>
<path d="M4.72953 5.39692C4.7295 5.62258 4.74363 5.84802 4.77183 6.07192C4.74363 5.84802 4.7295 5.62258 4.72953 5.39692C4.73127 5.05785 4.76533 4.71972 4.83123 4.38712" stroke="#057BFF" stroke-width="1.6" stroke-linecap="round" stroke-linejoin="round"/>
<path d="M15.3576 4.03971C14.7216 1.59624 12.4773 -0.0802873 9.95374 0.00296733C7.43021 0.086222 5.30126 1.90703 4.82764 4.38711C3.57772 3.7879 2.08838 4.01504 1.07389 4.95958C0.0593902 5.90413 -0.273387 7.37347 0.235144 8.66295C0.743675 9.95243 1.98981 10.7991 3.37594 10.7969" stroke="#057BFF" stroke-width="1.6" stroke-linecap="round" stroke-linejoin="round"/>
</svg>
