<svg width="375" height="44" viewBox="0 0 375 44" fill="none" xmlns="http://www.w3.org/2000/svg">
<g clip-path="url(#clip0_0_127)">
<rect opacity="0.35" x="336.5" y="17.8333" width="21" height="10.3333" rx="2.16667" stroke="white"/>
<path opacity="0.4" d="M359 21V25C359.805 24.6612 360.328 23.8731 360.328 23C360.328 22.1269 359.805 21.3388 359 21Z" fill="white"/>
<rect x="338" y="19.3333" width="18" height="7.33333" rx="1.33333" fill="white"/>
<path fill-rule="evenodd" clip-rule="evenodd" d="M323.33 19.608C325.546 19.6081 327.677 20.4595 329.283 21.9863C329.404 22.1042 329.598 22.1027 329.717 21.983L330.873 20.8163C330.933 20.7556 330.967 20.6734 330.966 20.5878C330.966 20.5022 330.931 20.4203 330.87 20.3603C326.655 16.3208 320.005 16.3208 315.79 20.3603C315.729 20.4203 315.694 20.5021 315.694 20.5877C315.693 20.6733 315.727 20.7556 315.787 20.8163L316.943 21.983C317.062 22.1029 317.256 22.1044 317.377 21.9863C318.983 20.4594 321.114 19.608 323.33 19.608ZM323.33 23.4037C324.548 23.4036 325.722 23.8561 326.624 24.6733C326.746 24.7893 326.939 24.7868 327.058 24.6677L328.212 23.501C328.273 23.4398 328.307 23.3568 328.306 23.2705C328.305 23.1843 328.27 23.1019 328.208 23.042C325.459 20.4856 321.204 20.4856 318.455 23.042C318.393 23.1019 318.358 23.1843 318.357 23.2706C318.356 23.3569 318.39 23.4399 318.451 23.501L319.605 24.6677C319.724 24.7868 319.917 24.7893 320.039 24.6733C320.941 23.8567 322.114 23.4042 323.33 23.4037ZM325.643 25.9575C325.645 26.044 325.611 26.1274 325.549 26.188L323.552 28.2037C323.493 28.2629 323.414 28.2962 323.33 28.2962C323.247 28.2962 323.167 28.2629 323.109 28.2037L321.111 26.188C321.049 26.1273 321.015 26.0439 321.017 25.9574C321.019 25.8709 321.056 25.789 321.121 25.731C322.396 24.6521 324.264 24.6521 325.54 25.731C325.604 25.789 325.642 25.871 325.643 25.9575Z" fill="white"/>
<path fill-rule="evenodd" clip-rule="evenodd" d="M309.667 17.6667H308.667C308.114 17.6667 307.667 18.1144 307.667 18.6667V27.3333C307.667 27.8856 308.114 28.3333 308.667 28.3333H309.667C310.219 28.3333 310.667 27.8856 310.667 27.3333V18.6667C310.667 18.1144 310.219 17.6667 309.667 17.6667ZM304 20H305C305.552 20 306 20.4477 306 21V27.3333C306 27.8856 305.552 28.3333 305 28.3333H304C303.448 28.3333 303 27.8856 303 27.3333V21C303 20.4477 303.448 20 304 20ZM300.333 22.3333H299.333C298.781 22.3333 298.333 22.781 298.333 23.3333V27.3333C298.333 27.8856 298.781 28.3333 299.333 28.3333H300.333C300.886 28.3333 301.333 27.8856 301.333 27.3333V23.3333C301.333 22.781 300.886 22.3333 300.333 22.3333ZM295.667 24.3333H294.667C294.114 24.3333 293.667 24.781 293.667 25.3333V27.3333C293.667 27.8856 294.114 28.3333 294.667 28.3333H295.667C296.219 28.3333 296.667 27.8856 296.667 27.3333V25.3333C296.667 24.781 296.219 24.3333 295.667 24.3333Z" fill="white"/>
<path d="M43.546 24.5684C43.546 25.6712 43.35 26.6009 42.9581 27.3574C42.3383 28.515 41.363 29.0938 40.0323 29.0938C39.4854 29.0938 38.9978 28.9844 38.5694 28.7656C37.9679 28.4648 37.6671 28.0638 37.6671 27.5625C37.6671 27.4805 37.6762 27.403 37.6944 27.3301C37.7947 26.9928 38.0408 26.8242 38.4327 26.8242C38.615 26.8242 38.7654 26.8607 38.8839 26.9336C39.0388 27.043 39.1436 27.3027 39.1983 27.7129C39.2165 27.8861 39.2393 28.0137 39.2667 28.0957C39.3761 28.5241 39.6905 28.7383 40.21 28.7383C40.4744 28.7383 40.7159 28.679 40.9346 28.5605C41.6547 28.1504 42.033 26.9564 42.0694 24.9785C41.5408 25.3613 40.9346 25.5573 40.2511 25.5664C39.686 25.5664 39.1892 25.4525 38.7608 25.2246C37.9587 24.8053 37.5577 24.1081 37.5577 23.1328C37.5577 22.5677 37.7126 22.071 38.0225 21.6426C38.5421 20.9225 39.3487 20.5625 40.4425 20.5625C41.1169 20.5625 41.7003 20.7448 42.1925 21.1094C43.0948 21.7839 43.546 22.9368 43.546 24.5684ZM38.9659 22.9277C38.975 24.3861 39.4672 25.1243 40.4425 25.1426C40.5518 25.1426 40.6612 25.1335 40.7706 25.1152C41.6182 24.9694 42.0421 24.2904 42.0421 23.0781C42.0421 22.8594 42.0284 22.6497 42.0011 22.4492C41.8461 21.4284 41.3311 20.918 40.4561 20.918C39.4809 20.9271 38.9841 21.597 38.9659 22.9277ZM46.1097 23.4336C46.1097 23.5521 46.0824 23.666 46.0277 23.7754C45.891 24.0762 45.654 24.2266 45.3168 24.2266C45.2074 24.2266 45.1026 24.2038 45.0023 24.1582C44.6924 24.0306 44.5375 23.7891 44.5375 23.4336C44.5375 23.3151 44.5602 23.2012 44.6058 23.0918C44.7517 22.791 44.9886 22.6406 45.3168 22.6406C45.4352 22.6406 45.5537 22.668 45.6722 22.7227C45.9639 22.8685 46.1097 23.1055 46.1097 23.4336ZM46.1097 26.6055C46.1097 26.7148 46.0824 26.8288 46.0277 26.9473C45.891 27.2389 45.654 27.3848 45.3168 27.3848C45.2074 27.3848 45.1026 27.362 45.0023 27.3164C44.6924 27.1797 44.5375 26.9427 44.5375 26.6055C44.5375 26.4779 44.5648 26.3548 44.6195 26.2363C44.7653 25.9355 44.9977 25.7852 45.3168 25.7852C45.4444 25.7852 45.5674 25.8171 45.6859 25.8809C45.9684 26.0358 46.1097 26.2773 46.1097 26.6055ZM52.8707 28.9297H48.7965V28.5605H50.3004V26.8105L46.6364 26.7969L46.5543 26.3867C47.3655 25.7214 48.04 25.0286 48.5778 24.3086C49.0791 23.6159 49.5029 22.7591 49.8493 21.7383C49.9586 21.4193 50.0407 21.196 50.0954 21.0684C50.2685 20.7129 50.5329 20.5352 50.8883 20.5352C51.3349 20.5807 51.5993 20.8268 51.6813 21.2734C51.6813 21.6471 51.4762 22.1074 51.0661 22.6543C50.4554 23.4837 49.1566 24.7279 47.1696 26.3867L50.3004 26.4004V24.7871H50.4098C50.5283 24.7871 50.6331 24.778 50.7243 24.7598C50.9339 24.7051 51.0888 24.5137 51.1891 24.1855L51.3395 23.6387H51.6403V26.4141H52.8707V26.8242H51.6403V28.5605H52.5426C52.5973 28.5605 52.6474 28.5651 52.693 28.5742C52.8115 28.5924 52.8707 28.7109 52.8707 28.9297ZM56.2411 20.6992H57.1298V27.5215L58.415 27.6309C58.4514 27.6309 58.4879 27.6354 58.5243 27.6445C58.7066 27.681 58.7978 27.7995 58.7978 28H53.9169V27.6445L55.7353 27.5215V21.6289L53.6708 22.9141L53.4247 22.5312L56.2411 20.6992Z" fill="white"/>
</g>
<defs>
<clipPath id="clip0_0_127">
<rect width="375" height="44" fill="white"/>
</clipPath>
</defs>
</svg>
